<svg xmlns="http://www.w3.org/2000/svg" version="1.1" xmlns:xlink="http://www.w3.org/1999/xlink" xmlns:svgjs="http://svgjs.com/svgjs" width="1406" height="688" preserveAspectRatio="none" viewBox="0 0 1406 688"><g mask="url(&quot;#SvgjsMask5433&quot;)" fill="none"><rect width="1406" height="688" x="0" y="0" fill="rgba(0, 0, 0, 0.99)"></rect><use xlink:href="#SvgjsSymbol5440" x="0" y="0"></use><use xlink:href="#SvgjsSymbol5440" x="720" y="0"></use></g><defs><mask id="SvgjsMask5433"><rect width="1406" height="688" fill="#ffffff"></rect></mask><path d="M-1 0 a1 1 0 1 0 2 0 a1 1 0 1 0 -2 0z" id="SvgjsPath5438"></path><path d="M-3 0 a3 3 0 1 0 6 0 a3 3 0 1 0 -6 0z" id="SvgjsPath5439"></path><path d="M-5 0 a5 5 0 1 0 10 0 a5 5 0 1 0 -10 0z" id="SvgjsPath5435"></path><path d="M2 -2 L-2 2z" id="SvgjsPath5437"></path><path d="M6 -6 L-6 6z" id="SvgjsPath5434"></path><path d="M30 -30 L-30 30z" id="SvgjsPath5436"></path></defs><symbol id="SvgjsSymbol5440"><use xlink:href="#SvgjsPath5434" x="30" y="30" stroke="rgba(255, 35, 35, 1)"></use><use xlink:href="#SvgjsPath5434" x="30" y="90" stroke="rgba(255, 35, 35, 1)"></use><use xlink:href="#SvgjsPath5435" x="30" y="150" stroke="rgba(255, 35, 35, 1)"></use><use xlink:href="#SvgjsPath5434" x="30" y="210" stroke="rgba(255, 35, 35, 1)"></use><use xlink:href="#SvgjsPath5434" x="30" y="270" stroke="rgba(255, 35, 35, 1)"></use><use xlink:href="#SvgjsPath5435" x="30" y="330" stroke="rgba(255, 35, 35, 1)"></use><use xlink:href="#SvgjsPath5436" x="30" y="390" stroke="rgba(255, 35, 35, 1)" stroke-width="3"></use><use xlink:href="#SvgjsPath5435" x="30" y="450" stroke="rgba(255, 35, 35, 1)"></use><use xlink:href="#SvgjsPath5437" x="30" y="510" stroke="rgba(255, 35, 35, 1)"></use><use xlink:href="#SvgjsPath5437" x="30" y="570" stroke="rgba(255, 35, 35, 1)"></use><use xlink:href="#SvgjsPath5438" x="30" y="630" stroke="rgba(255, 35, 35, 1)"></use><use xlink:href="#SvgjsPath5434" x="30" y="690" stroke="rgba(255, 35, 35, 1)"></use><use xlink:href="#SvgjsPath5434" x="90" y="30" stroke="rgba(255, 35, 35, 1)"></use><use xlink:href="#SvgjsPath5434" x="90" y="90" stroke="rgba(255, 35, 35, 1)"></use><use xlink:href="#SvgjsPath5435" x="90" y="150" stroke="rgba(255, 35, 35, 1)"></use><use xlink:href="#SvgjsPath5434" x="90" y="210" stroke="rgba(255, 35, 35, 1)"></use><use xlink:href="#SvgjsPath5434" x="90" y="270" stroke="rgba(255, 35, 35, 1)"></use><use xlink:href="#SvgjsPath5434" x="90" y="330" stroke="rgba(255, 35, 35, 1)"></use><use xlink:href="#SvgjsPath5435" x="90" y="390" stroke="rgba(255, 35, 35, 1)"></use><use xlink:href="#SvgjsPath5437" x="90" y="450" stroke="rgba(255, 35, 35, 1)"></use><use xlink:href="#SvgjsPath5435" x="90" y="510" stroke="rgba(255, 35, 35, 1)"></use><use xlink:href="#SvgjsPath5436" x="90" y="570" stroke="rgba(255, 35, 35, 1)" stroke-width="3"></use><use xlink:href="#SvgjsPath5437" x="90" y="630" stroke="rgba(255, 35, 35, 1)"></use><use xlink:href="#SvgjsPath5437" x="90" y="690" stroke="rgba(255, 35, 35, 1)"></use><use xlink:href="#SvgjsPath5438" x="150" y="30" stroke="rgba(255, 35, 35, 1)"></use><use xlink:href="#SvgjsPath5435" x="150" y="90" stroke="rgba(255, 35, 35, 1)"></use><use xlink:href="#SvgjsPath5439" x="150" y="150" stroke="rgba(255, 35, 35, 1)"></use><use xlink:href="#SvgjsPath5435" x="150" y="210" stroke="rgba(255, 35, 35, 1)"></use><use xlink:href="#SvgjsPath5435" x="150" y="270" stroke="rgba(255, 35, 35, 1)"></use><use xlink:href="#SvgjsPath5434" x="150" y="330" stroke="rgba(255, 35, 35, 1)"></use><use xlink:href="#SvgjsPath5435" x="150" y="390" stroke="rgba(255, 35, 35, 1)"></use><use xlink:href="#SvgjsPath5439" x="150" y="450" stroke="rgba(255, 35, 35, 1)"></use><use xlink:href="#SvgjsPath5435" x="150" y="510" stroke="rgba(255, 35, 35, 1)"></use><use xlink:href="#SvgjsPath5435" x="150" y="570" stroke="rgba(255, 35, 35, 1)"></use><use xlink:href="#SvgjsPath5438" x="150" y="630" stroke="rgba(255, 35, 35, 1)"></use><use xlink:href="#SvgjsPath5434" x="150" y="690" stroke="rgba(255, 35, 35, 1)"></use><use xlink:href="#SvgjsPath5438" x="210" y="30" stroke="rgba(255, 35, 35, 1)"></use><use xlink:href="#SvgjsPath5434" x="210" y="90" stroke="rgba(255, 35, 35, 1)"></use><use xlink:href="#SvgjsPath5438" x="210" y="150" stroke="rgba(255, 35, 35, 1)"></use><use xlink:href="#SvgjsPath5435" x="210" y="210" stroke="rgba(255, 35, 35, 1)"></use><use xlink:href="#SvgjsPath5435" x="210" y="270" stroke="rgba(255, 35, 35, 1)"></use><use xlink:href="#SvgjsPath5434" x="210" y="330" stroke="rgba(255, 35, 35, 1)"></use><use xlink:href="#SvgjsPath5435" x="210" y="390" stroke="rgba(255, 35, 35, 1)"></use><use xlink:href="#SvgjsPath5434" x="210" y="450" stroke="rgba(255, 35, 35, 1)"></use><use xlink:href="#SvgjsPath5434" x="210" y="510" stroke="rgba(255, 35, 35, 1)"></use><use xlink:href="#SvgjsPath5436" x="210" y="570" stroke="rgba(255, 35, 35, 1)" stroke-width="3"></use><use xlink:href="#SvgjsPath5438" x="210" y="630" stroke="rgba(255, 35, 35, 1)"></use><use xlink:href="#SvgjsPath5435" x="210" y="690" stroke="rgba(255, 35, 35, 1)"></use><use xlink:href="#SvgjsPath5435" x="270" y="30" stroke="rgba(255, 35, 35, 1)"></use><use xlink:href="#SvgjsPath5436" x="270" y="90" stroke="rgba(255, 35, 35, 1)" stroke-width="3"></use><use xlink:href="#SvgjsPath5434" x="270" y="150" stroke="rgba(255, 35, 35, 1)"></use><use xlink:href="#SvgjsPath5435" x="270" y="210" stroke="rgba(255, 35, 35, 1)"></use><use xlink:href="#SvgjsPath5434" x="270" y="270" stroke="rgba(255, 35, 35, 1)"></use><use xlink:href="#SvgjsPath5435" x="270" y="330" stroke="rgba(255, 35, 35, 1)"></use><use xlink:href="#SvgjsPath5435" x="270" y="390" stroke="rgba(255, 35, 35, 1)"></use><use xlink:href="#SvgjsPath5435" x="270" y="450" stroke="rgba(255, 35, 35, 1)"></use><use xlink:href="#SvgjsPath5434" x="270" y="510" stroke="rgba(255, 35, 35, 1)"></use><use xlink:href="#SvgjsPath5436" x="270" y="570" stroke="rgba(255, 35, 35, 1)" stroke-width="3"></use><use xlink:href="#SvgjsPath5439" x="270" y="630" stroke="rgba(255, 35, 35, 1)"></use><use xlink:href="#SvgjsPath5434" x="270" y="690" stroke="rgba(255, 35, 35, 1)"></use><use xlink:href="#SvgjsPath5434" x="330" y="30" stroke="rgba(255, 35, 35, 1)"></use><use xlink:href="#SvgjsPath5437" x="330" y="90" stroke="rgba(255, 35, 35, 1)"></use><use xlink:href="#SvgjsPath5436" x="330" y="150" stroke="rgba(255, 35, 35, 1)" stroke-width="3"></use><use xlink:href="#SvgjsPath5434" x="330" y="210" stroke="rgba(255, 35, 35, 1)"></use><use xlink:href="#SvgjsPath5434" x="330" y="270" stroke="rgba(255, 35, 35, 1)"></use><use xlink:href="#SvgjsPath5438" x="330" y="330" stroke="rgba(255, 35, 35, 1)"></use><use xlink:href="#SvgjsPath5434" x="330" y="390" stroke="rgba(255, 35, 35, 1)"></use><use xlink:href="#SvgjsPath5434" x="330" y="450" stroke="rgba(255, 35, 35, 1)"></use><use xlink:href="#SvgjsPath5438" x="330" y="510" stroke="rgba(255, 35, 35, 1)"></use><use xlink:href="#SvgjsPath5439" x="330" y="570" stroke="rgba(255, 35, 35, 1)"></use><use xlink:href="#SvgjsPath5435" x="330" y="630" stroke="rgba(255, 35, 35, 1)"></use><use xlink:href="#SvgjsPath5438" x="330" y="690" stroke="rgba(255, 35, 35, 1)"></use><use xlink:href="#SvgjsPath5435" x="390" y="30" stroke="rgba(255, 35, 35, 1)"></use><use xlink:href="#SvgjsPath5435" x="390" y="90" stroke="rgba(255, 35, 35, 1)"></use><use xlink:href="#SvgjsPath5437" x="390" y="150" stroke="rgba(255, 35, 35, 1)"></use><use xlink:href="#SvgjsPath5435" x="390" y="210" stroke="rgba(255, 35, 35, 1)"></use><use xlink:href="#SvgjsPath5437" x="390" y="270" stroke="rgba(255, 35, 35, 1)"></use><use xlink:href="#SvgjsPath5435" x="390" y="330" stroke="rgba(255, 35, 35, 1)"></use><use xlink:href="#SvgjsPath5434" x="390" y="390" stroke="rgba(255, 35, 35, 1)"></use><use xlink:href="#SvgjsPath5437" x="390" y="450" stroke="rgba(255, 35, 35, 1)"></use><use xlink:href="#SvgjsPath5435" x="390" y="510" stroke="rgba(255, 35, 35, 1)"></use><use xlink:href="#SvgjsPath5434" x="390" y="570" stroke="rgba(255, 35, 35, 1)"></use><use xlink:href="#SvgjsPath5438" x="390" y="630" stroke="rgba(255, 35, 35, 1)"></use><use xlink:href="#SvgjsPath5434" x="390" y="690" stroke="rgba(255, 35, 35, 1)"></use><use xlink:href="#SvgjsPath5435" x="450" y="30" stroke="rgba(255, 35, 35, 1)"></use><use xlink:href="#SvgjsPath5436" x="450" y="90" stroke="rgba(255, 35, 35, 1)" stroke-width="3"></use><use xlink:href="#SvgjsPath5435" x="450" y="150" stroke="rgba(255, 35, 35, 1)"></use><use xlink:href="#SvgjsPath5434" x="450" y="210" stroke="rgba(255, 35, 35, 1)"></use><use xlink:href="#SvgjsPath5437" x="450" y="270" stroke="rgba(255, 35, 35, 1)"></use><use xlink:href="#SvgjsPath5437" x="450" y="330" stroke="rgba(255, 35, 35, 1)"></use><use xlink:href="#SvgjsPath5437" x="450" y="390" stroke="rgba(255, 35, 35, 1)"></use><use xlink:href="#SvgjsPath5435" x="450" y="450" stroke="rgba(255, 35, 35, 1)"></use><use xlink:href="#SvgjsPath5435" x="450" y="510" stroke="rgba(255, 35, 35, 1)"></use><use xlink:href="#SvgjsPath5438" x="450" y="570" stroke="rgba(255, 35, 35, 1)"></use><use xlink:href="#SvgjsPath5435" x="450" y="630" stroke="rgba(255, 35, 35, 1)"></use><use xlink:href="#SvgjsPath5435" x="450" y="690" stroke="rgba(255, 35, 35, 1)"></use><use xlink:href="#SvgjsPath5434" x="510" y="30" stroke="rgba(255, 35, 35, 1)"></use><use xlink:href="#SvgjsPath5435" x="510" y="90" stroke="rgba(255, 35, 35, 1)"></use><use xlink:href="#SvgjsPath5439" x="510" y="150" stroke="rgba(255, 35, 35, 1)"></use><use xlink:href="#SvgjsPath5439" x="510" y="210" stroke="rgba(255, 35, 35, 1)"></use><use xlink:href="#SvgjsPath5437" x="510" y="270" stroke="rgba(255, 35, 35, 1)"></use><use xlink:href="#SvgjsPath5435" x="510" y="330" stroke="rgba(255, 35, 35, 1)"></use><use xlink:href="#SvgjsPath5438" x="510" y="390" stroke="rgba(255, 35, 35, 1)"></use><use xlink:href="#SvgjsPath5436" x="510" y="450" stroke="rgba(255, 35, 35, 1)" stroke-width="3"></use><use xlink:href="#SvgjsPath5436" x="510" y="510" stroke="rgba(255, 35, 35, 1)" stroke-width="3"></use><use xlink:href="#SvgjsPath5438" x="510" y="570" stroke="rgba(255, 35, 35, 1)"></use><use xlink:href="#SvgjsPath5435" x="510" y="630" stroke="rgba(255, 35, 35, 1)"></use><use xlink:href="#SvgjsPath5437" x="510" y="690" stroke="rgba(255, 35, 35, 1)"></use><use xlink:href="#SvgjsPath5439" x="570" y="30" stroke="rgba(255, 35, 35, 1)"></use><use xlink:href="#SvgjsPath5437" x="570" y="90" stroke="rgba(255, 35, 35, 1)"></use><use xlink:href="#SvgjsPath5437" x="570" y="150" stroke="rgba(255, 35, 35, 1)"></use><use xlink:href="#SvgjsPath5435" x="570" y="210" stroke="rgba(255, 35, 35, 1)"></use><use xlink:href="#SvgjsPath5437" x="570" y="270" stroke="rgba(255, 35, 35, 1)"></use><use xlink:href="#SvgjsPath5435" x="570" y="330" stroke="rgba(255, 35, 35, 1)"></use><use xlink:href="#SvgjsPath5439" x="570" y="390" stroke="rgba(255, 35, 35, 1)"></use><use xlink:href="#SvgjsPath5437" x="570" y="450" stroke="rgba(255, 35, 35, 1)"></use><use xlink:href="#SvgjsPath5439" x="570" y="510" stroke="rgba(255, 35, 35, 1)"></use><use xlink:href="#SvgjsPath5434" x="570" y="570" stroke="rgba(255, 35, 35, 1)"></use><use xlink:href="#SvgjsPath5436" x="570" y="630" stroke="rgba(255, 35, 35, 1)" stroke-width="3"></use><use xlink:href="#SvgjsPath5437" x="570" y="690" stroke="rgba(255, 35, 35, 1)"></use><use xlink:href="#SvgjsPath5435" x="630" y="30" stroke="rgba(255, 35, 35, 1)"></use><use xlink:href="#SvgjsPath5436" x="630" y="90" stroke="rgba(255, 35, 35, 1)" stroke-width="3"></use><use xlink:href="#SvgjsPath5439" x="630" y="150" stroke="rgba(255, 35, 35, 1)"></use><use xlink:href="#SvgjsPath5438" x="630" y="210" stroke="rgba(255, 35, 35, 1)"></use><use xlink:href="#SvgjsPath5437" x="630" y="270" stroke="rgba(255, 35, 35, 1)"></use><use xlink:href="#SvgjsPath5436" x="630" y="330" stroke="rgba(255, 35, 35, 1)" stroke-width="3"></use><use xlink:href="#SvgjsPath5434" x="630" y="390" stroke="rgba(255, 35, 35, 1)"></use><use xlink:href="#SvgjsPath5435" x="630" y="450" stroke="rgba(255, 35, 35, 1)"></use><use xlink:href="#SvgjsPath5435" x="630" y="510" stroke="rgba(255, 35, 35, 1)"></use><use xlink:href="#SvgjsPath5439" x="630" y="570" stroke="rgba(255, 35, 35, 1)"></use><use xlink:href="#SvgjsPath5438" x="630" y="630" stroke="rgba(255, 35, 35, 1)"></use><use xlink:href="#SvgjsPath5435" x="630" y="690" stroke="rgba(255, 35, 35, 1)"></use><use xlink:href="#SvgjsPath5435" x="690" y="30" stroke="rgba(255, 35, 35, 1)"></use><use xlink:href="#SvgjsPath5435" x="690" y="90" stroke="rgba(255, 35, 35, 1)"></use><use xlink:href="#SvgjsPath5439" x="690" y="150" stroke="rgba(255, 35, 35, 1)"></use><use xlink:href="#SvgjsPath5435" x="690" y="210" stroke="rgba(255, 35, 35, 1)"></use><use xlink:href="#SvgjsPath5434" x="690" y="270" stroke="rgba(255, 35, 35, 1)"></use><use xlink:href="#SvgjsPath5437" x="690" y="330" stroke="rgba(255, 35, 35, 1)"></use><use xlink:href="#SvgjsPath5437" x="690" y="390" stroke="rgba(255, 35, 35, 1)"></use><use xlink:href="#SvgjsPath5437" x="690" y="450" stroke="rgba(255, 35, 35, 1)"></use><use xlink:href="#SvgjsPath5438" x="690" y="510" stroke="rgba(255, 35, 35, 1)"></use><use xlink:href="#SvgjsPath5437" x="690" y="570" stroke="rgba(255, 35, 35, 1)"></use><use xlink:href="#SvgjsPath5434" x="690" y="630" stroke="rgba(255, 35, 35, 1)"></use><use xlink:href="#SvgjsPath5435" x="690" y="690" stroke="rgba(255, 35, 35, 1)"></use></symbol></svg>